<svg 
 xmlns="http://www.w3.org/2000/svg"
 xmlns:xlink="http://www.w3.org/1999/xlink"
 width="84px" height="112px">
<defs>
<linearGradient id="PSgrad_0" x1="0%" x2="0%" y1="100%" y2="0%">
  <stop offset="0%" stop-color="rgb(123,185,59)" stop-opacity="1" />
  <stop offset="100%" stop-color="rgb(112,166,55)" stop-opacity="1" />
</linearGradient>

</defs>
<path fill-rule="evenodd"  fill="url(#PSgrad_0)"
 d="M42.000,-0.000 C18.840,-0.000 -0.000,18.842 -0.000,42.000 C-0.000,72.985 38.751,109.812 40.400,111.366 C40.851,111.788 41.426,112.000 42.000,112.000 C42.574,112.000 43.148,111.788 43.600,111.366 C45.249,109.812 84.000,72.985 84.000,42.000 C84.000,18.842 65.160,-0.000 42.000,-0.000 ZM42.000,65.333 C29.135,65.333 18.667,54.865 18.667,42.000 C18.667,29.135 29.135,18.667 42.000,18.667 C54.865,18.667 65.333,29.135 65.333,42.000 C65.333,54.865 54.865,65.333 42.000,65.333 Z"/>
</svg>