<svg style="display: none;" xmlns="http://www.w3.org/2000/svg" xmlns:xlink="http://www.w3.org/1999/xlink">
    <symbol id="instagram" viewBox="0 0 20 20">
        <g>
            <path d="M9.778,5.937 C7.566,5.937 5.767,7.777 5.767,10.039 C5.767,12.300 7.566,14.140 9.778,14.140 C11.989,14.140 13.788,12.300 13.788,10.039 C13.788,7.777 11.989,5.937 9.778,5.937 L9.778,5.937 ZM9.778,5.937 C7.566,5.937 5.767,7.777 5.767,10.039 C5.767,12.300 7.566,14.140 9.778,14.140 C11.989,14.140 13.788,12.300 13.788,10.039 C13.788,7.777 11.989,5.937 9.778,5.937 L9.778,5.937 ZM16.691,-0.000 L2.865,-0.000 C1.283,-0.000 0.000,1.312 0.000,2.929 L0.000,17.070 C0.000,18.687 1.283,20.000 2.865,20.000 L16.691,20.000 C18.272,20.000 19.556,18.687 19.556,17.070 L19.556,2.929 C19.556,1.312 18.272,-0.000 16.691,-0.000 L16.691,-0.000 ZM9.778,15.312 C6.936,15.312 4.621,12.945 4.621,10.039 C4.621,7.132 6.936,4.765 9.778,4.765 C12.619,4.765 14.934,7.132 14.934,10.039 C14.934,12.945 12.619,15.312 9.778,15.312 L9.778,15.312 ZM16.080,4.765 C15.450,4.765 14.934,4.238 14.934,3.593 C14.934,2.949 15.450,2.421 16.080,2.421 C16.710,2.421 17.226,2.949 17.226,3.593 C17.226,4.238 16.710,4.765 16.080,4.765 L16.080,4.765 ZM9.778,5.937 C7.566,5.937 5.767,7.777 5.767,10.039 C5.767,12.300 7.566,14.140 9.778,14.140 C11.989,14.140 13.788,12.300 13.788,10.039 C13.788,7.777 11.989,5.937 9.778,5.937 L9.778,5.937 ZM9.778,5.937 C7.566,5.937 5.767,7.777 5.767,10.039 C5.767,12.300 7.566,14.140 9.778,14.140 C11.989,14.140 13.788,12.300 13.788,10.039 C13.788,7.777 11.989,5.937 9.778,5.937 L9.778,5.937 ZM9.778,5.937 C7.566,5.937 5.767,7.777 5.767,10.039 C5.767,12.300 7.566,14.140 9.778,14.140 C11.989,14.140 13.788,12.300 13.788,10.039 C13.788,7.777 11.989,5.937 9.778,5.937 L9.778,5.937 Z"/>
        </g>
    </symbol>
    <symbol id="odnoklassniki" viewBox="0 0 20 20">
        <g>
            <path d="M17.364,19.997 C12.594,19.999 7.823,19.999 3.053,19.996 C1.488,19.995 0.445,18.937 0.444,17.346 C0.440,12.455 0.441,7.563 0.444,2.671 C0.445,1.053 1.481,0.005 3.077,0.003 C5.462,-0.000 7.847,0.002 10.232,0.002 C12.604,0.002 14.976,0.000 17.347,0.003 C18.968,0.005 19.996,1.047 19.997,2.695 C20.000,7.559 20.000,12.423 19.997,17.286 C19.996,18.945 18.976,19.996 17.364,19.997 ZM10.250,2.864 C8.146,2.860 6.452,4.525 6.461,6.587 C6.470,8.596 8.176,10.233 10.247,10.221 C12.326,10.208 13.987,8.593 13.980,6.591 C13.973,4.507 12.334,2.869 10.250,2.864 ZM14.352,11.000 C14.131,10.524 13.604,10.277 13.089,10.435 C12.844,10.510 12.614,10.635 12.380,10.744 C10.878,11.442 9.391,11.411 7.918,10.650 C7.737,10.556 7.555,10.456 7.362,10.400 C6.884,10.262 6.336,10.510 6.110,10.943 C5.880,11.384 5.946,11.869 6.359,12.216 C6.647,12.458 6.985,12.654 7.328,12.808 C7.731,12.988 8.163,13.099 8.583,13.240 C8.629,13.294 8.674,13.348 8.720,13.402 C8.557,13.500 8.371,13.572 8.235,13.700 C7.687,14.216 7.141,14.736 6.622,15.281 C6.202,15.723 6.163,16.260 6.467,16.678 C6.796,17.131 7.356,17.259 7.886,16.979 C8.063,16.886 8.230,16.755 8.368,16.607 C8.949,15.987 9.516,15.353 10.088,14.725 C10.167,14.725 10.246,14.725 10.325,14.725 C10.618,15.068 10.892,15.432 11.209,15.750 C11.614,16.158 12.028,16.564 12.485,16.905 C12.981,17.276 13.591,17.168 13.944,16.727 C14.294,16.289 14.256,15.731 13.810,15.270 C13.258,14.699 12.686,14.148 12.124,13.586 C12.024,13.487 11.930,13.380 11.801,13.241 C11.938,13.190 12.013,13.166 12.085,13.135 C12.718,12.861 13.376,12.633 13.977,12.298 C14.473,12.021 14.577,11.485 14.352,11.000 ZM10.205,8.076 C9.339,8.066 8.671,7.391 8.676,6.531 C8.681,5.689 9.382,5.018 10.246,5.027 C11.116,5.036 11.780,5.708 11.771,6.570 C11.762,7.421 11.072,8.085 10.205,8.076 Z"/>
        </g>
    </symbol>
    <symbol id="email" viewBox="0 0 17 14">
        <g>
            <path d="M12.757,7.745 C13.661,7.083 14.759,6.294 16.051,5.378 C16.412,5.120 16.728,4.831 17.000,4.513 L17.000,12.192 L12.757,7.745 ZM15.378,4.314 C13.843,5.430 12.685,6.273 11.898,6.846 C11.466,7.161 11.145,7.395 10.938,7.546 C10.908,7.568 10.860,7.604 10.797,7.651 C10.728,7.702 10.642,7.768 10.535,7.849 C10.330,8.004 10.159,8.130 10.023,8.227 C9.887,8.322 9.722,8.430 9.530,8.550 C9.336,8.669 9.155,8.759 8.984,8.818 C8.813,8.878 8.655,8.907 8.510,8.907 L8.500,8.907 L8.491,8.907 C8.345,8.907 8.187,8.878 8.016,8.818 C7.846,8.759 7.664,8.669 7.471,8.550 C7.278,8.430 7.113,8.323 6.978,8.227 C6.842,8.130 6.671,8.004 6.465,7.849 C6.359,7.768 6.272,7.702 6.204,7.651 C6.140,7.604 6.092,7.568 6.062,7.546 C5.797,7.349 5.476,7.115 5.104,6.843 C4.668,6.525 4.160,6.154 3.577,5.731 C2.495,4.945 1.847,4.472 1.632,4.314 C1.240,4.035 0.870,3.653 0.522,3.166 C0.174,2.679 0.000,2.226 0.000,1.809 C0.000,1.292 0.131,0.861 0.394,0.516 C0.656,0.172 1.031,-0.001 1.518,-0.001 L15.482,-0.001 C15.893,-0.001 16.249,0.156 16.549,0.466 C16.850,0.778 17.000,1.152 17.000,1.590 C17.000,2.114 16.845,2.614 16.535,3.092 C16.225,3.568 15.840,3.976 15.378,4.314 ZM4.245,7.744 L-0.000,12.192 L-0.000,4.513 C0.278,4.838 0.598,5.126 0.958,5.378 C2.302,6.335 3.396,7.123 4.245,7.744 ZM5.673,8.807 C6.033,9.086 6.326,9.303 6.550,9.459 C6.775,9.615 7.074,9.774 7.447,9.936 C7.820,10.099 8.168,10.180 8.490,10.180 L8.500,10.180 L8.509,10.180 C8.832,10.180 9.180,10.099 9.553,9.936 C9.926,9.774 10.225,9.615 10.449,9.459 C10.674,9.303 10.966,9.086 11.327,8.807 C11.433,8.728 11.545,8.643 11.660,8.557 L16.477,13.604 C16.195,13.866 15.864,13.998 15.482,13.998 L1.518,13.998 C1.136,13.998 0.804,13.866 0.523,13.604 L5.340,8.555 C5.461,8.646 5.572,8.731 5.673,8.807 Z"/>
        </g>
    </symbol>
    <symbol id="time" viewBox="0 0 16 16">
        <g>
            <path d="M8.000,-0.002 C3.589,-0.002 -0.000,3.588 -0.000,7.999 C-0.000,12.410 3.589,15.998 8.000,15.998 C12.411,15.998 16.000,12.410 16.000,7.999 C16.000,3.588 12.411,-0.002 8.000,-0.002 L8.000,-0.002 ZM11.805,12.136 C11.675,12.267 11.504,12.332 11.333,12.332 C11.163,12.332 10.992,12.267 10.862,12.136 L7.529,8.803 C7.403,8.678 7.333,8.509 7.333,8.332 L7.333,3.998 C7.333,3.630 7.632,3.332 8.000,3.332 C8.368,3.332 8.666,3.630 8.666,3.998 L8.666,8.056 L11.805,11.194 C12.065,11.455 12.065,11.876 11.805,12.136 L11.805,12.136 Z"/>
        </g>
    </symbol>
    <symbol id="loc" viewBox="0 0 15 20">
        <g>
            <path d="M7.500,-0.000 C3.364,-0.000 -0.000,3.364 -0.000,7.500 C-0.000,13.033 6.920,19.609 7.214,19.887 C7.295,19.962 7.397,20.000 7.500,20.000 C7.603,20.000 7.705,19.962 7.786,19.887 C8.080,19.609 15.000,13.033 15.000,7.500 C15.000,3.364 11.636,-0.000 7.500,-0.000 ZM7.500,11.666 C5.203,11.666 3.333,9.797 3.333,7.500 C3.333,5.202 5.203,3.333 7.500,3.333 C9.797,3.333 11.667,5.202 11.667,7.500 C11.667,9.797 9.797,11.666 7.500,11.666 Z"/>
        </g>
    </symbol>
    <symbol id="tel" viewBox="0 0 15 15">
        <g>
            <path d="M14.579,11.007 L12.486,8.913 C11.738,8.165 10.467,8.465 10.168,9.436 C9.943,10.110 9.196,10.484 8.523,10.334 C7.027,9.960 5.008,8.017 4.634,6.446 C4.410,5.774 4.859,5.026 5.532,4.801 C6.504,4.502 6.803,3.231 6.055,2.484 L3.961,0.391 C3.363,-0.133 2.466,-0.133 1.943,0.391 L0.522,1.811 C-0.899,3.306 0.671,7.268 4.186,10.782 C7.700,14.296 11.663,15.941 13.159,14.446 L14.579,13.025 C15.103,12.427 15.103,11.530 14.579,11.007 Z"/>
        </g>
    </symbol>
    <symbol id="search" viewBox="0 0 24 24">
        <g>
            <path d="M17.677,16.741 C19.259,14.963 20.228,12.631 20.228,10.069 C20.227,4.505 15.700,-0.003 10.113,-0.004 C4.526,-0.003 -0.001,4.505 -0.002,10.069 C-0.001,15.633 4.526,20.141 10.113,20.141 C12.628,20.141 14.924,19.222 16.693,17.709 L22.780,23.771 C23.050,24.040 23.489,24.040 23.759,23.771 C24.029,23.502 24.029,23.065 23.758,22.797 L17.677,16.741 ZM3.939,16.218 C2.358,14.642 1.382,12.472 1.382,10.069 C1.382,7.666 2.358,5.496 3.939,3.920 C5.521,2.346 7.699,1.374 10.113,1.373 C12.526,1.374 14.705,2.346 16.287,3.920 C17.868,5.496 18.844,7.666 18.844,10.069 C18.844,12.472 17.868,14.642 16.287,16.218 C14.705,17.792 12.526,18.764 10.113,18.764 C7.699,18.764 5.521,17.792 3.939,16.218 Z"/>
        </g>
    </symbol>
    <symbol id="user" viewBox="0 0 20 24">
        <g>
            <path d="M-0.004,23.301 C-0.004,23.485 0.072,23.664 0.206,23.794 C0.339,23.924 0.523,23.998 0.711,23.998 L19.289,23.998 C19.477,23.998 19.661,23.924 19.794,23.794 C19.927,23.664 20.004,23.485 20.004,23.301 C20.005,20.157 18.904,17.470 17.091,15.575 C15.876,14.302 14.336,13.401 12.623,12.939 C15.130,11.932 16.896,9.530 16.896,6.723 C16.895,3.010 13.808,0.001 10.000,0.000 C6.191,0.001 3.104,3.010 3.104,6.723 C3.104,9.530 4.870,11.932 7.377,12.939 C5.664,13.401 4.124,14.302 2.909,15.575 C1.096,17.470 -0.005,20.157 -0.004,23.301 ZM4.533,6.723 C4.534,5.249 5.144,3.922 6.134,2.955 C7.126,1.990 8.488,1.395 10.000,1.394 C11.512,1.395 12.873,1.990 13.865,2.955 C14.856,3.922 15.466,5.249 15.466,6.723 C15.466,8.197 14.856,9.525 13.865,10.491 C12.873,11.456 11.512,12.051 10.000,12.051 C8.488,12.051 7.126,11.456 6.134,10.491 C5.144,9.525 4.534,8.197 4.533,6.723 ZM10.000,13.978 C12.371,13.979 14.494,14.905 16.045,16.525 C17.464,18.011 18.394,20.091 18.543,22.605 L1.456,22.605 C1.605,20.091 2.536,18.011 3.955,16.525 C5.506,14.905 7.629,13.979 10.000,13.978 Z"/>
        </g>
    </symbol>
    <symbol id="cart" viewBox="0 0 34 30">
        <g>
            <path d="M33.724,4.681 L30.290,13.766 C29.845,14.935 28.982,15.921 27.947,16.642 C26.908,17.358 25.683,17.818 24.437,17.821 L8.796,17.821 C7.725,17.820 6.740,17.446 5.958,16.826 L5.958,18.726 C5.959,19.509 6.276,20.217 6.793,20.737 C7.311,21.257 8.016,21.574 8.796,21.575 L25.952,21.575 C26.437,21.575 26.830,21.969 26.830,22.456 C26.830,22.943 26.437,23.337 25.952,23.337 L8.796,23.337 C6.264,23.334 4.206,21.269 4.203,18.726 L4.203,13.211 L4.203,7.162 L4.203,4.611 C4.204,3.535 4.577,2.546 5.194,1.762 L0.869,1.762 C0.385,1.762 -0.008,1.368 -0.008,0.881 C-0.008,0.394 0.385,0.000 0.869,0.000 L8.796,0.000 L12.626,0.000 L30.506,0.000 C31.485,-0.001 32.370,0.301 33.011,0.886 C33.654,1.465 34.012,2.315 34.006,3.211 C34.006,3.692 33.910,4.187 33.724,4.681 ZM31.833,2.191 C31.565,1.948 31.138,1.763 30.506,1.762 L12.626,1.762 L8.796,1.762 C8.017,1.762 7.311,2.080 6.793,2.599 C6.276,3.120 5.959,3.828 5.958,4.611 L5.958,7.162 L5.958,13.211 C5.959,13.994 6.276,14.702 6.793,15.222 C7.311,15.741 8.016,16.059 8.796,16.060 L24.437,16.060 C25.234,16.063 26.163,15.739 26.950,15.191 C27.738,14.648 28.371,13.891 28.649,13.141 L28.960,12.318 L11.491,12.318 C11.006,12.318 10.614,11.924 10.614,11.437 C10.614,10.950 11.006,10.556 11.491,10.556 L29.552,10.556 C29.576,10.556 29.599,10.562 29.623,10.564 L30.958,7.034 L11.491,7.034 C11.006,7.034 10.614,6.641 10.614,6.154 C10.614,5.667 11.006,5.272 11.491,5.272 L31.623,5.272 L32.083,4.057 C32.202,3.740 32.252,3.456 32.252,3.211 C32.246,2.753 32.098,2.438 31.833,2.191 ZM10.047,25.868 C11.183,25.868 12.105,26.792 12.105,27.935 C12.105,29.076 11.183,30.001 10.047,30.001 C8.910,30.001 7.988,29.076 7.988,27.935 C7.988,26.792 8.910,25.868 10.047,25.868 ZM22.121,25.868 C23.258,25.868 24.180,26.792 24.180,27.935 C24.180,29.076 23.258,30.001 22.121,30.001 C20.984,30.001 20.062,29.076 20.062,27.935 C20.062,26.792 20.984,25.868 22.121,25.868 Z"/>
        </g>
    </symbol>
    <symbol id="date" viewBox="0 0 14 14">
        <g>
            <path d="M12.359,14.000 L1.641,14.000 C0.736,14.000 -0.000,13.264 -0.000,12.359 L-0.000,2.734 C-0.000,1.829 0.736,1.094 1.641,1.094 L2.297,1.094 L2.297,-0.000 L3.391,-0.000 L3.391,1.094 L10.609,1.094 L10.609,-0.000 L11.703,-0.000 L11.703,1.094 L12.359,1.094 C13.264,1.094 14.000,1.829 14.000,2.734 L14.000,12.359 C14.000,13.264 13.264,14.000 12.359,14.000 ZM12.906,2.734 C12.906,2.432 12.661,2.187 12.359,2.187 L11.703,2.187 L11.703,3.281 L10.609,3.281 L10.609,2.187 L3.391,2.187 L3.391,3.281 L2.297,3.281 L2.297,2.187 L1.641,2.187 C1.339,2.187 1.094,2.432 1.094,2.734 L1.094,4.047 L12.906,4.047 L12.906,2.734 ZM12.906,5.140 L1.094,5.140 L1.094,12.359 C1.094,12.661 1.339,12.906 1.641,12.906 L12.359,12.906 C12.661,12.906 12.906,12.661 12.906,12.359 L12.906,5.140 ZM10.828,8.476 L11.922,8.476 L11.922,9.570 L10.828,9.570 L10.828,8.476 ZM10.828,6.289 L11.922,6.289 L11.922,7.383 L10.828,7.383 L10.828,6.289 ZM8.641,10.664 L9.734,10.664 L9.734,11.758 L8.641,11.758 L8.641,10.664 ZM8.641,8.476 L9.734,8.476 L9.734,9.570 L8.641,9.570 L8.641,8.476 ZM8.641,6.289 L9.734,6.289 L9.734,7.383 L8.641,7.383 L8.641,6.289 ZM6.453,10.664 L7.547,10.664 L7.547,11.758 L6.453,11.758 L6.453,10.664 ZM6.453,8.476 L7.547,8.476 L7.547,9.570 L6.453,9.570 L6.453,8.476 ZM6.453,6.289 L7.547,6.289 L7.547,7.383 L6.453,7.383 L6.453,6.289 ZM4.266,10.664 L5.359,10.664 L5.359,11.758 L4.266,11.758 L4.266,10.664 ZM4.266,8.476 L5.359,8.476 L5.359,9.570 L4.266,9.570 L4.266,8.476 ZM4.266,6.289 L5.359,6.289 L5.359,7.383 L4.266,7.383 L4.266,6.289 ZM2.078,10.664 L3.172,10.664 L3.172,11.758 L2.078,11.758 L2.078,10.664 ZM2.078,8.476 L3.172,8.476 L3.172,9.570 L2.078,9.570 L2.078,8.476 ZM2.078,6.289 L3.172,6.289 L3.172,7.383 L2.078,7.383 L2.078,6.289 Z"/>
        </g>
    </symbol>
    <symbol id="price" viewBox="0 0 15 14">
        <g>
            <path fill="rgb(123, 185, 59)" d="M10.986,14.000 C9.996,14.000 9.002,13.846 8.258,13.548 C8.459,13.331 8.610,13.088 8.697,12.815 C9.373,13.015 10.177,13.123 10.986,13.123 C12.955,13.123 15.000,12.518 15.000,11.370 L15.000,12.246 C15.000,13.395 12.955,14.000 10.986,14.000 ZM10.986,12.246 C10.212,12.246 9.444,12.147 8.789,11.962 C8.789,11.209 8.789,11.406 8.789,11.081 C9.447,11.265 10.211,11.370 10.986,11.370 C12.955,11.370 15.000,10.765 15.000,9.616 L15.000,10.493 C15.000,11.829 12.420,12.246 10.986,12.246 ZM10.986,10.493 C10.215,10.493 9.445,10.397 8.789,10.215 C8.789,9.722 8.789,9.828 8.789,9.335 C9.445,9.518 10.213,9.616 10.986,9.616 C12.409,9.616 15.000,9.201 15.000,7.863 L15.000,8.740 C15.000,9.888 12.955,10.493 10.986,10.493 ZM10.986,8.740 C10.210,8.740 9.445,8.635 8.789,8.449 L8.789,5.531 C11.116,4.901 15.000,5.384 15.000,6.986 C15.000,8.137 12.952,8.740 10.986,8.740 ZM3.955,14.000 C1.986,14.000 -0.000,13.395 -0.000,12.246 L-0.000,11.370 C-0.000,12.518 1.986,13.123 3.955,13.123 C5.924,13.123 7.910,12.518 7.910,11.370 L7.910,12.246 C7.910,13.395 5.924,14.000 3.955,14.000 ZM3.955,12.246 C1.986,12.246 -0.000,11.641 -0.000,10.493 L-0.000,9.616 C-0.000,10.765 1.986,11.370 3.955,11.370 C5.924,11.370 7.910,10.765 7.910,9.616 L7.910,10.493 C7.910,11.641 5.924,12.246 3.955,12.246 ZM3.955,10.493 C1.986,10.493 -0.000,9.888 -0.000,8.740 L-0.000,7.863 C-0.000,9.011 1.986,9.616 3.955,9.616 C5.924,9.616 7.910,9.011 7.910,7.863 L7.910,8.740 C7.910,9.888 5.924,10.493 3.955,10.493 ZM3.955,8.740 C1.986,8.740 -0.000,8.135 -0.000,6.986 L-0.000,6.110 C-0.000,7.258 1.986,7.863 3.955,7.863 C5.924,7.863 7.910,7.258 7.910,6.110 L7.910,6.986 C7.910,8.135 5.924,8.740 3.955,8.740 ZM3.955,6.986 C2.533,6.986 -0.000,6.570 -0.000,5.233 L-0.000,4.356 C-0.000,5.505 1.986,6.110 3.955,6.110 C5.924,6.110 7.910,5.505 7.910,4.356 L7.910,5.233 C7.910,5.390 7.875,5.540 7.805,5.671 C7.374,6.530 5.660,6.986 3.955,6.986 ZM3.955,5.233 C1.986,5.233 -0.000,4.628 -0.000,3.479 L-0.000,2.603 C-0.000,3.941 2.533,4.356 3.955,4.356 C5.389,4.356 7.910,3.939 7.910,2.603 L7.910,3.479 C7.910,4.628 5.924,5.233 3.955,5.233 ZM3.955,3.479 C1.989,3.479 -0.000,2.877 -0.000,1.726 C-0.000,-0.576 7.910,-0.576 7.910,1.726 C7.910,2.877 5.921,3.479 3.955,3.479 Z"/>
        </g>
    </symbol>
    <!-- стрелки -->
    <symbol id="prev" viewBox="0 0 7 15">
        <g>
            <path d="M0.154,6.623 L6.160,0.158 C6.359,-0.049 6.676,-0.043 6.868,0.171 C7.055,0.380 7.055,0.711 6.868,0.920 L1.215,7.003 L6.868,13.087 C7.063,13.297 7.063,13.638 6.868,13.848 C6.672,14.058 6.355,14.058 6.160,13.848 L0.154,7.384 C-0.042,7.174 -0.042,6.833 0.154,6.623 Z"/>
        </g>
    </symbol>
    <symbol id="next" viewBox="0 0 7 15">
        <g>
            <path d="M6.846,6.623 L0.840,0.158 C0.641,-0.049 0.324,-0.043 0.132,0.171 C-0.055,0.380 -0.055,0.711 0.132,0.920 L5.785,7.003 L0.132,13.087 C-0.063,13.297 -0.063,13.638 0.132,13.848 C0.328,14.058 0.645,14.058 0.840,13.848 L6.846,7.384 C7.042,7.174 7.042,6.833 6.846,6.623 Z"/>
        </g>
    </symbol>
    <symbol id="show-all" viewBox="0 0 5 10">
        <g>
            <path d="M4.876,4.715 L0.607,0.108 C0.465,-0.040 0.240,-0.035 0.104,0.117 C-0.030,0.266 -0.030,0.502 0.104,0.651 L4.122,4.987 L0.104,9.323 C-0.035,9.473 -0.035,9.716 0.104,9.866 C0.243,10.016 0.468,10.016 0.607,9.866 L4.876,5.258 C5.015,5.108 5.015,4.865 4.876,4.715 Z"/>
        </g>
    </symbol>
    <!-- карточка -->
    <symbol id="payment" viewBox="0 0 29 25">
        <g>
            <path d="M27.714,17.396 L27.714,22.286 C27.714,23.546 26.689,24.571 25.429,24.571 L3.714,24.571 C1.824,24.571 0.286,23.033 0.286,21.143 L0.286,7.428 L0.286,6.286 L0.286,4.000 C0.286,2.109 1.824,0.571 3.714,0.571 L22.000,0.571 C23.260,0.571 24.286,1.597 24.286,2.857 L24.286,5.143 L25.429,5.143 C26.689,5.143 27.714,6.169 27.714,7.428 L27.714,11.175 C28.394,11.572 28.857,12.301 28.857,13.143 L28.857,15.429 C28.857,16.270 28.394,16.999 27.714,17.396 ZM19.714,13.143 C19.084,13.143 18.571,13.655 18.571,14.286 C18.571,14.916 19.084,15.429 19.714,15.429 L26.571,15.429 L26.571,13.143 L19.714,13.143 ZM22.000,2.857 L3.714,2.857 C3.084,2.857 2.571,3.369 2.571,4.000 C2.571,4.630 3.084,5.143 3.714,5.143 L22.000,5.143 L22.000,2.857 ZM3.714,7.428 C3.312,7.428 2.931,7.346 2.571,7.218 L2.571,7.428 L2.571,21.143 C2.571,21.773 3.084,22.286 3.714,22.286 L25.429,22.286 L25.429,17.714 L19.714,17.714 C17.824,17.714 16.286,16.176 16.286,14.286 C16.286,12.395 17.824,10.857 19.714,10.857 L25.429,10.857 L25.429,7.428 L3.714,7.428 Z"/>
        </g>
    </symbol>
    <symbol id="delivery" viewBox="0 0 29 25">
        <g>
            <path d="M27.840,21.050 L27.071,21.050 C26.568,22.750 25.033,24.001 23.200,24.001 C21.367,24.001 19.832,22.750 19.329,21.050 L17.400,21.050 L10.831,21.050 C10.328,22.750 8.793,24.001 6.960,24.001 C5.127,24.001 3.592,22.750 3.089,21.050 L1.160,21.050 C0.519,21.050 -0.000,20.521 -0.000,19.869 L-0.000,3.343 C-0.000,2.042 1.041,0.982 2.320,0.982 L16.240,0.982 C17.519,0.982 18.560,2.042 18.560,3.343 L18.560,8.065 L22.689,8.065 C23.886,8.065 24.876,8.974 24.992,10.180 L25.420,13.181 L27.909,14.418 C27.983,14.455 28.053,14.499 28.118,14.551 C28.670,14.995 29.000,15.684 29.000,16.398 L29.000,19.869 C29.000,20.521 28.481,21.050 27.840,21.050 ZM6.960,21.640 C7.919,21.640 8.700,20.845 8.700,19.869 C8.700,18.893 7.919,18.098 6.960,18.098 C6.000,18.098 5.220,18.893 5.220,19.869 C5.220,20.845 6.000,21.640 6.960,21.640 ZM16.240,9.245 L16.240,3.343 L2.320,3.343 L2.320,18.689 L3.089,18.689 C3.592,16.988 5.127,15.738 6.960,15.738 C8.793,15.738 10.328,16.988 10.831,18.689 L16.240,18.689 L16.240,9.245 ZM23.200,21.640 C24.159,21.640 24.940,20.845 24.940,19.869 C24.940,18.893 24.159,18.098 23.200,18.098 C22.240,18.098 21.460,18.893 21.460,19.869 C21.460,20.845 22.240,21.640 23.200,21.640 ZM26.680,16.434 L23.850,15.027 C23.506,14.856 23.267,14.523 23.212,14.136 L22.690,10.465 L18.560,10.434 L18.560,18.689 L19.329,18.689 C19.832,16.988 21.367,15.738 23.200,15.738 C24.684,15.738 25.972,16.561 26.680,17.775 L26.680,16.434 Z"/>
        </g>
    </symbol>
    <symbol id="warranty" viewBox="0 0 22 28">
        <g>
            <path d="M18.037,22.628 C18.011,22.655 17.984,22.681 17.957,22.705 L12.270,27.712 C12.063,27.893 11.807,27.985 11.550,27.985 C11.314,27.985 11.077,27.908 10.880,27.753 L4.570,22.815 C4.539,22.791 4.509,22.764 4.480,22.737 C1.633,19.974 -0.000,16.025 -0.000,11.903 L-0.000,4.078 C-0.000,3.153 0.550,2.308 1.368,1.976 C7.914,-0.673 14.329,-0.647 20.434,2.050 C21.349,2.318 22.000,3.206 22.000,4.211 L22.000,12.323 C22.000,16.212 20.593,19.872 18.037,22.628 ZM19.800,4.211 C19.730,4.196 19.697,4.165 19.631,4.137 C14.058,1.651 8.190,1.624 2.183,4.056 L2.200,11.903 C2.200,15.396 3.568,18.736 5.958,21.077 L11.509,25.422 L16.474,21.050 C18.588,18.749 19.800,15.572 19.800,12.323 L19.800,4.211 ZM11.915,16.276 C11.733,16.554 11.436,16.736 11.108,16.769 C11.072,16.772 11.035,16.774 11.000,16.774 C10.710,16.774 10.430,16.657 10.222,16.446 L6.922,13.088 C6.493,12.651 6.493,11.943 6.922,11.505 C7.352,11.068 8.048,11.068 8.478,11.505 L10.829,13.898 L14.485,8.318 C14.820,7.803 15.502,7.664 16.010,8.007 C16.516,8.351 16.652,9.045 16.315,9.560 L11.915,16.276 Z"/>
        </g>
    </symbol>
    <!-- каталог -->
    <symbol id="sort-list" viewBox="0 0 24 19">
        <g>
            <path d="M-0.000,19.000 L-0.000,16.000 L24.000,16.000 L24.000,19.000 L-0.000,19.000 ZM-0.000,8.000 L24.000,8.000 L24.000,11.000 L-0.000,11.000 L-0.000,8.000 ZM-0.000,-0.000 L24.000,-0.000 L24.000,3.000 L-0.000,3.000 L-0.000,-0.000 Z"/>
        </g>
    </symbol>
    <symbol id="sort-gallery" viewBox="0 0 24 21">
        <g>
            <path d="M18.000,21.000 L18.000,16.000 L24.000,16.000 L24.000,21.000 L18.000,21.000 ZM18.000,8.000 L24.000,8.000 L24.000,13.000 L18.000,13.000 L18.000,8.000 ZM18.000,-0.000 L24.000,-0.000 L24.000,5.000 L18.000,5.000 L18.000,-0.000 ZM9.000,16.000 L15.000,16.000 L15.000,21.000 L9.000,21.000 L9.000,16.000 ZM9.000,8.000 L15.000,8.000 L15.000,13.000 L9.000,13.000 L9.000,8.000 ZM9.000,-0.000 L15.000,-0.000 L15.000,5.000 L9.000,5.000 L9.000,-0.000 ZM-0.000,16.000 L6.000,16.000 L6.000,21.000 L-0.000,21.000 L-0.000,16.000 ZM-0.000,8.000 L6.000,8.000 L6.000,13.000 L-0.000,13.000 L-0.000,8.000 ZM-0.000,-0.000 L6.000,-0.000 L6.000,5.000 L-0.000,5.000 L-0.000,-0.000 Z"/>
        </g>
    </symbol>
    <symbol id="close" viewBox="0 0 15 15">
        <g>
            <path fill="rgb(209, 209, 209)" d="M9.310,7.000 L13.641,2.669 C14.120,2.191 14.120,1.415 13.641,0.937 L13.064,0.360 C12.585,-0.119 11.809,-0.119 11.331,0.360 L7.000,4.691 L2.669,0.359 C2.191,-0.120 1.415,-0.120 0.937,0.359 L0.359,0.936 C-0.120,1.415 -0.120,2.191 0.359,2.669 L4.691,7.000 L0.360,11.331 C-0.119,11.810 -0.119,12.586 0.360,13.064 L0.937,13.641 C1.416,14.120 2.192,14.120 2.669,13.641 L7.000,9.310 L11.331,13.641 C11.810,14.120 12.586,14.120 13.064,13.641 L13.641,13.064 C14.120,12.585 14.120,11.809 13.641,11.331 L9.310,7.000 Z"/>
        </g>
    </symbol>
    <!-- адаптивные иконки -->
    <symbol id="hamburger" viewBox="0 0 20 17">
        <g>
            <path d="M0.406,0.500 L19.813,0.500 L19.813,1.719 L0.406,1.719 L0.406,0.500 Z"/>
            <path d="M0.406,7.781 L19.813,7.781 L19.813,9.000 L0.406,9.000 L0.406,7.781 Z"/>
            <path d="M0.406,15.062 L19.813,15.062 L19.813,16.281 L0.406,16.281 L0.406,15.062 Z"/>
        </g>
    </symbol>
    <symbol id="tel2" viewBox="0 0 24 24">
        <g>
            <path d="M23.873,19.250 L23.063,22.879 C22.991,23.225 22.759,23.533 22.413,23.738 C22.094,23.927 21.737,23.989 21.372,23.989 C21.120,23.989 20.863,23.960 20.611,23.921 C15.771,23.189 10.872,20.645 7.171,16.940 C3.501,13.266 1.077,8.608 0.164,3.470 C0.067,2.927 0.001,2.228 0.342,1.648 L0.344,1.646 C0.550,1.300 0.854,1.070 1.200,0.997 L4.827,0.186 C5.687,0.002 6.582,0.595 6.867,1.529 C7.249,2.795 7.558,3.822 8.088,4.909 C8.505,5.766 8.240,6.790 7.485,7.243 L6.617,7.747 C6.489,7.822 6.390,7.953 6.355,8.097 C6.282,8.794 8.543,11.684 10.464,13.607 C12.314,15.459 15.150,17.665 15.847,17.568 C15.988,17.533 16.116,17.435 16.194,17.303 L16.695,16.438 C17.147,15.680 18.171,15.418 19.027,15.833 C19.730,16.176 20.878,16.631 21.800,16.995 C23.128,17.521 23.231,17.568 23.378,17.715 C23.809,18.146 23.989,18.706 23.873,19.250 ZM22.437,18.774 C22.238,18.684 21.733,18.484 21.282,18.306 C20.337,17.932 19.161,17.467 18.412,17.100 C18.187,16.991 17.966,17.058 17.908,17.154 L17.410,18.013 C17.141,18.473 16.694,18.809 16.182,18.937 C14.334,19.404 9.962,15.097 9.469,14.604 C8.641,13.775 4.532,9.548 4.989,7.753 C5.115,7.245 5.451,6.797 5.909,6.529 L6.769,6.030 C6.875,5.967 6.928,5.741 6.823,5.526 C6.243,4.339 5.903,3.208 5.542,2.011 C5.450,1.710 5.234,1.539 5.127,1.562 C5.122,1.563 4.898,1.613 1.551,2.363 L1.555,2.365 C1.500,2.459 1.454,2.684 1.550,3.224 C2.413,8.076 4.701,12.474 8.167,15.943 C11.660,19.440 16.272,21.840 20.821,22.527 C21.011,22.556 21.516,22.633 21.696,22.525 L22.498,18.950 C22.508,18.904 22.486,18.840 22.437,18.774 ZM11.985,3.156 C16.315,3.156 19.839,6.684 19.839,11.019 C19.839,11.408 19.524,11.723 19.135,11.723 C18.746,11.723 18.431,11.408 18.431,11.019 C18.431,7.461 15.539,4.566 11.985,4.566 C11.596,4.566 11.280,4.250 11.280,3.861 C11.280,3.472 11.596,3.156 11.985,3.156 ZM22.164,11.723 C21.775,11.723 21.460,11.408 21.460,11.019 C21.460,5.788 17.210,1.534 11.985,1.534 C11.596,1.534 11.280,1.218 11.280,0.829 C11.280,0.440 11.596,0.124 11.985,0.124 C17.986,0.124 22.868,5.011 22.868,11.019 C22.868,11.408 22.553,11.723 22.164,11.723 Z"/>
        </g>
    </symbol>
    <symbol id="toggle-arrow" viewBox="0 0 13 7">
        <g>
            <path d="M5.998,7.000 C5.783,7.000 5.568,6.916 5.404,6.748 L0.244,1.465 C-0.084,1.129 -0.084,0.584 0.244,0.248 C0.572,-0.088 1.104,-0.088 1.432,0.248 L5.998,4.923 L10.563,0.248 C10.891,-0.088 11.423,-0.088 11.751,0.248 C12.080,0.584 12.080,1.129 11.751,1.465 L6.592,6.749 C6.428,6.916 6.213,7.000 5.998,7.000 Z"/>
        </g>
    </symbol>
    <symbol id="toggle-arrow2" viewBox="0 0 6 5">
        <g>
            <path d="M3.557,4.629 L5.839,0.931 C5.944,0.760 6.000,0.588 6.000,0.445 C6.000,0.168 5.800,-0.002 5.465,-0.002 L0.534,-0.002 C0.199,-0.002 -0.000,0.168 -0.000,0.444 C-0.000,0.587 0.056,0.756 0.161,0.929 L2.443,4.627 C2.590,4.866 2.788,4.997 3.000,4.997 C3.212,4.997 3.410,4.867 3.557,4.629 Z"/>
        </g>
    </symbol>
</svg>