<svg 
 xmlns="http://www.w3.org/2000/svg"
 xmlns:xlink="http://www.w3.org/1999/xlink"
 width="18px" height="16px">
<path fill-rule="evenodd"  fill="rgb(213, 213, 213)"
 d="M16.483,6.065 C16.427,5.888 16.279,5.758 16.101,5.731 L11.084,4.977 L8.841,0.273 C8.761,0.106 8.596,-0.000 8.416,-0.000 C8.236,-0.000 8.071,0.106 7.991,0.273 L5.748,4.977 L0.731,5.731 C0.553,5.758 0.404,5.888 0.349,6.065 C0.293,6.243 0.339,6.438 0.469,6.568 L4.098,10.229 L3.242,15.399 C3.211,15.583 3.284,15.769 3.430,15.879 C3.513,15.941 3.611,15.972 3.709,15.972 C3.784,15.972 3.860,15.954 3.929,15.916 L8.416,13.475 L12.902,15.916 C13.062,16.003 13.256,15.988 13.402,15.879 C13.548,15.769 13.621,15.583 13.590,15.399 L12.733,10.229 L16.363,6.568 C16.492,6.438 16.539,6.243 16.483,6.065 Z"/>
</svg>