<svg 
 xmlns="http://www.w3.org/2000/svg"
 xmlns:xlink="http://www.w3.org/1999/xlink"
 width="18px" height="16px">
<path fill-rule="evenodd"  fill="rgb(248, 191, 70)"
 d="M16.146,6.065 C16.090,5.888 15.941,5.758 15.763,5.731 L10.747,4.977 L8.503,0.273 C8.424,0.106 8.259,-0.000 8.078,-0.000 C7.898,-0.000 7.733,0.106 7.653,0.273 L5.410,4.977 L0.394,5.731 C0.215,5.758 0.067,5.888 0.011,6.065 C-0.045,6.243 0.002,6.438 0.131,6.568 L3.761,10.229 L2.904,15.399 C2.873,15.583 2.947,15.769 3.093,15.879 C3.175,15.941 3.273,15.972 3.371,15.972 C3.447,15.972 3.522,15.954 3.592,15.916 L8.078,13.475 L12.565,15.916 C12.725,16.003 12.918,15.988 13.064,15.879 C13.210,15.769 13.283,15.583 13.253,15.399 L12.396,10.229 L16.026,6.568 C16.155,6.438 16.201,6.243 16.146,6.065 Z"/>
</svg>